<!DOCTYPE svg PUBLIC "-//W3C//DTD SVG 1.1//EN" "http://www.w3.org/Graphics/SVG/1.1/DTD/svg11.dtd">
<!-- Uploaded to: SVG Repo, www.svgrepo.com, Transformed by: SVG Repo Mixer Tools -->
<svg fill="#ffffff" height="800px" width="800px" version="1.1" id="Capa_1" xmlns="http://www.w3.org/2000/svg" xmlns:xlink="http://www.w3.org/1999/xlink" viewBox="0 0 433.678 433.678" xml:space="preserve">
<g id="SVGRepo_bgCarrier" stroke-width="0"/>
<g id="SVGRepo_tracerCarrier" stroke-linecap="round" stroke-linejoin="round"/>
<g id="SVGRepo_iconCarrier"> <path d="M433.42,60.597c-0.736-2.672-2.915-4.648-5.979-5.423l-34.255-8.663c-0.878-0.222-2.229-1.574-2.451-2.452l-8.663-34.253 c-0.957-3.787-3.821-6.233-7.298-6.233c-2.087,0-4.163,0.928-5.846,2.611l-30.695,30.694c-2.633,2.633-5.151,7.375-5.858,11.029 l-7.283,37.624c-0.32,1.655-0.277,3.465,0.07,5.246l-20.214,20.15c-32.395-29.041-75.163-46.732-121.991-46.732 C82.073,64.193,0,146.267,0,247.15s82.073,182.956,182.956,182.956s182.956-82.074,182.956-182.956 c0-43.275-15.112-83.081-40.324-114.44l20.73-20.664c1.016,0.208,2.046,0.324,3.059,0.324c0.81,0,1.596-0.073,2.337-0.216 l37.623-7.282c3.655-0.708,8.397-3.227,11.029-5.859l30.694-30.694C433.297,66.083,434.156,63.269,433.42,60.597z M241.891,247.15 c0,32.496-26.438,58.934-58.935,58.934c-32.496,0-58.934-26.438-58.934-58.934s26.438-58.934,58.934-58.934 c5.542,0,10.901,0.786,15.99,2.222l-8.226,24.954c-2.49-0.609-5.088-0.939-7.763-0.939c-18.028,0-32.695,14.667-32.695,32.696 s14.667,32.696,32.695,32.696c17.495,0,31.823-13.812,32.656-31.104l25.789-9.059C241.712,242.13,241.891,244.619,241.891,247.15z M252.14,163.566c-18.797-15.585-42.915-24.967-69.184-24.967c-59.854,0-108.55,48.695-108.55,108.55s48.695,108.55,108.55,108.55 c59.855,0,108.551-48.695,108.551-108.55c0-22.783-7.061-43.946-19.102-61.425l20.348-20.283 c17.028,22.823,27.12,51.108,27.12,81.708c0,75.496-61.42,136.916-136.916,136.916S46.04,322.645,46.04,247.15 s61.42-136.916,136.916-136.916c34.107,0,65.339,12.538,89.335,33.244L252.14,163.566z"/> </g>
</svg>