<!DOCTYPE svg PUBLIC "-//W3C//DTD SVG 1.1//EN" "http://www.w3.org/Graphics/SVG/1.1/DTD/svg11.dtd">
<!-- Uploaded to: SVG Repo, www.svgrepo.com, Transformed by: SVG Repo Mixer Tools -->
<svg fill="#ffffff" width="800px" height="800px" viewBox="0 0 24 24" xmlns="http://www.w3.org/2000/svg">
<g id="SVGRepo_bgCarrier" stroke-width="0"/>
<g id="SVGRepo_tracerCarrier" stroke-linecap="round" stroke-linejoin="round"/>
<g id="SVGRepo_iconCarrier">
<path d="M19,11a2.962,2.962,0,0,1,1,.184V7H15.859A4,4,0,1,0,8.141,7H4v4.184A2.962,2.962,0,0,1,5,11a3,3,0,0,1,0,6,2.962,2.962,0,0,1-1-.184V22H9.184A2.962,2.962,0,0,1,9,21a3,3,0,0,1,6,0,2.962,2.962,0,0,1-.184,1H20V16.816A2.962,2.962,0,0,1,19,17a3,3,0,0,1,0-6Z"/>
</g>
</svg>